<svg width="19" height="24" viewBox="0 0 19 24" fill="none" xmlns="http://www.w3.org/2000/svg">
<path fill-rule="evenodd" clip-rule="evenodd" d="M9.25774 0C6.1865 0 3.69677 2.48973 3.69677 5.56098C3.69677 8.63222 6.1865 11.122 9.25774 11.122C12.329 11.122 14.8187 8.63222 14.8187 5.56098C14.8187 2.48973 12.329 0 9.25774 0ZM5.45286 5.56098C5.45286 3.4596 7.15636 1.7561 9.25774 1.7561C11.3591 1.7561 13.0626 3.4596 13.0626 5.56098C13.0626 7.66235 11.3591 9.36585 9.25774 9.36585C7.15636 9.36585 5.45286 7.66235 5.45286 5.56098Z" fill="#9E9E9E"/>
<path fill-rule="evenodd" clip-rule="evenodd" d="M9.25774 12.878C6.87023 12.878 4.66557 13.4292 3.02728 14.3653C1.41383 15.2873 0.18457 16.6948 0.18457 18.439C0.18457 20.1833 1.41383 21.5907 3.02728 22.5127C4.66557 23.4489 6.87023 24 9.25774 24C11.6453 24 13.8499 23.4489 15.4882 22.5127C17.1016 21.5907 18.3309 20.1833 18.3309 18.439C18.3309 16.6948 17.1016 15.2873 15.4882 14.3653C13.8499 13.4292 11.6453 12.878 9.25774 12.878ZM1.94067 18.439C1.94067 17.5969 2.54594 16.663 3.89855 15.8901C5.22631 15.1313 7.11921 14.6341 9.25774 14.6341C11.3963 14.6341 13.2892 15.1313 14.6169 15.8901C15.9695 16.663 16.5748 17.5969 16.5748 18.439C16.5748 19.2811 15.9695 20.2151 14.6169 20.988C13.2892 21.7467 11.3963 22.2439 9.25774 22.2439C7.11921 22.2439 5.22631 21.7467 3.89855 20.988C2.54594 20.2151 1.94067 19.2811 1.94067 18.439Z" fill="#9E9E9E"/>
</svg>
