<svg width="16" height="18" viewBox="0 0 16 18" fill="none" xmlns="http://www.w3.org/2000/svg">
<path d="M7.81696 0C5.0286 0 2.76818 2.26042 2.76818 5.04878V7.68293C2.76818 10.4713 5.0286 12.7317 7.81696 12.7317C10.3821 12.7317 12.5005 10.8187 12.8232 8.34146L8.69501 8.34146C8.33131 8.34146 8.03647 8.04663 8.03647 7.68293C8.03647 7.31923 8.33131 7.02439 8.69501 7.02439L12.8657 7.02439V5.70732H8.69501C8.33131 5.70732 8.03647 5.41248 8.03647 5.04878C8.03647 4.68508 8.33131 4.39024 8.69501 4.39024H12.8232C12.5005 1.91303 10.3821 0 7.81696 0Z" fill="#E2D213"/>
<path fill-rule="evenodd" clip-rule="evenodd" d="M0.79257 6.14634C1.15627 6.14634 1.45111 6.44118 1.45111 6.80488V7.68293C1.45111 11.1987 4.3012 14.0488 7.81696 14.0488C11.3327 14.0488 14.1828 11.1987 14.1828 7.68293V6.80488C14.1828 6.44118 14.4777 6.14634 14.8414 6.14634C15.205 6.14634 15.4999 6.44118 15.4999 6.80488V7.68293C15.4999 11.7043 12.4104 15.004 8.4755 15.338V17.3415C8.4755 17.7052 8.18066 18 7.81696 18C7.45326 18 7.15842 17.7052 7.15842 17.3415V15.338C3.22354 15.004 0.134033 11.7043 0.134033 7.68293V6.80488C0.134033 6.44118 0.42887 6.14634 0.79257 6.14634Z" fill="#E2D213"/>
</svg>
