<svg width="19" height="18" viewBox="0 0 19 18" fill="none" xmlns="http://www.w3.org/2000/svg">
<path d="M9.13403 0C10.7947 0 12.1304 0 13.2201 0.0790468L10.1228 4.72502H5.89528L9.0453 0H9.13403Z" fill="#E2D213"/>
<path d="M1.45205 1.31802C2.57918 0.190889 4.29378 0.0276466 7.42013 0.00400406L4.27278 4.72502H0.227795C0.360319 3.13733 0.680155 2.08992 1.45205 1.31802Z" fill="#E2D213"/>
<path fill-rule="evenodd" clip-rule="evenodd" d="M0.134033 9C0.134033 7.88693 0.134033 6.91987 0.157833 6.07502H18.1102C18.134 6.91987 18.134 7.88693 18.134 9C18.134 13.2426 18.134 15.364 16.816 16.682C15.498 18 13.3767 18 9.13403 18C4.89139 18 2.77007 18 1.45205 16.682C0.134033 15.364 0.134033 13.2426 0.134033 9ZM10.0466 9.52669C11.2382 10.2955 11.834 10.68 11.834 11.25C11.834 11.82 11.2382 12.2044 10.0466 12.9733C8.83872 13.7527 8.23475 14.1424 7.78439 13.8562C7.33403 13.5701 7.33403 12.7967 7.33403 11.25C7.33403 9.70326 7.33403 8.92988 7.78439 8.64377C8.23476 8.35765 8.8387 8.74733 10.0466 9.52669Z" fill="#E2D213"/>
<path d="M18.0403 4.72502C17.9077 3.13733 17.5879 2.08992 16.816 1.31802C16.2784 0.780428 15.6072 0.462108 14.7129 0.273624L11.7453 4.72502H18.0403Z" fill="#E2D213"/>
</svg>
