<svg width="19" height="18" viewBox="0 0 19 18" fill="none" xmlns="http://www.w3.org/2000/svg">
<path d="M18.1338 9.62806C18.1325 10.9507 18.1224 12.0748 18.0472 12.9973C17.96 14.0677 17.7813 14.9621 17.3813 15.705C17.2048 16.0326 16.988 16.3261 16.7241 16.59C15.9749 17.3392 15.0205 17.6785 13.8109 17.8411C12.6292 18 11.1147 18 9.18207 18H9.086C7.15339 18 5.63885 18 4.45714 17.8411C3.24759 17.6785 2.29315 17.3392 1.54401 16.59C0.879868 15.9259 0.536897 15.0993 0.354513 14.0739C0.175349 13.0665 0.142575 11.8133 0.135766 10.2571C0.134033 9.86121 0.134033 9.44254 0.134033 9.00084V8.95196C0.134023 7.01936 0.134014 5.50481 0.292891 4.3231C0.45551 3.11356 0.794865 2.15912 1.54401 1.40998C2.29315 0.660832 3.24759 0.321477 4.45714 0.158858C5.50804 0.0175679 6.86015 0.00193457 8.50586 0.000212353C8.85264 -0.000150552 9.13403 0.281123 9.13403 0.627906C9.13403 0.97469 8.85252 1.25568 8.50573 1.25604C6.83678 1.25781 5.59479 1.27302 4.62447 1.40347C3.55418 1.54737 2.90892 1.82105 2.432 2.29797C1.95508 2.77489 1.6814 3.42015 1.53751 4.49044C1.39118 5.57879 1.38985 7.00893 1.38985 9C1.38985 9.24315 1.38985 9.4783 1.39013 9.70598L2.22829 8.9726C2.99122 8.30504 4.14106 8.34333 4.85788 9.06016L8.44928 12.6516C9.02464 13.2269 9.93033 13.3054 10.596 12.8375L10.8457 12.6621C11.8037 11.9888 13.0997 12.0668 13.9701 12.8501L16.3398 14.9828C16.5783 14.4819 16.7199 13.8238 16.7956 12.8953C16.8669 12.0205 16.8767 10.9579 16.878 9.6281C16.8784 9.28131 17.1593 9 17.5061 9C17.8529 9 18.1342 9.28128 18.1338 9.62806Z" fill="#E2D213"/>
<path fill-rule="evenodd" clip-rule="evenodd" d="M14.084 8.1C12.1748 8.1 11.2203 8.1 10.6271 7.50689C10.034 6.91378 10.034 5.95919 10.034 4.05C10.034 2.14081 10.034 1.18622 10.6271 0.593109C11.2203 0 12.1748 0 14.084 0C15.9932 0 16.9478 0 17.5409 0.593109C18.134 1.18622 18.134 2.14081 18.134 4.05C18.134 5.95919 18.134 6.91378 17.5409 7.50689C16.9478 8.1 15.9932 8.1 14.084 8.1ZM15.9113 3.1227L14.5613 1.7727C14.2977 1.5091 13.8703 1.5091 13.6067 1.7727L12.2567 3.1227C11.9931 3.38631 11.9931 3.81369 12.2567 4.0773C12.5203 4.3409 12.9477 4.3409 13.2113 4.0773L13.409 3.87959V5.85C13.409 6.22279 13.7112 6.525 14.084 6.525C14.4568 6.525 14.759 6.22279 14.759 5.85V3.87959L14.9567 4.0773C15.2203 4.3409 15.6477 4.3409 15.9113 4.0773C16.1749 3.81369 16.1749 3.38631 15.9113 3.1227Z" fill="#E2D213"/>
</svg>
