<svg width="25" height="24" viewBox="0 0 25 24" fill="none" xmlns="http://www.w3.org/2000/svg">
<path fill-rule="evenodd" clip-rule="evenodd" d="M5.50046 4.56851C3.55415 6.44642 2.34361 9.08184 2.34361 12C2.34361 17.7027 6.96653 22.3256 12.6692 22.3256C12.8115 22.3256 12.9532 22.3227 13.0941 22.317C12.8648 21.2994 12.8337 19.9313 13.5331 18.6132C14.2611 17.2414 15.7683 16.6462 16.8763 16.3738C17.4569 16.2311 17.9948 16.1607 18.3858 16.1256C18.5823 16.108 18.7443 16.0991 18.8591 16.0945C18.9166 16.0923 18.9625 16.0911 18.9952 16.0905L19.0342 16.0899L19.0436 16.0899C20.9105 16.0704 21.7517 15.4632 22.1981 14.8841C22.5794 14.3893 22.7234 13.8945 22.8694 13.3925C22.888 13.3287 22.9066 13.2647 22.9257 13.2006C22.9713 12.8068 22.9948 12.4061 22.9948 12C22.9948 9.18242 21.8662 6.62843 20.0365 4.76537C20.0268 4.80339 20.0168 4.84086 20.0067 4.8777C19.825 5.5396 19.5315 6.21895 19.2126 6.70297C18.9269 7.13652 18.3728 7.57387 17.9129 7.90431C17.6102 8.1218 17.295 8.30657 17.0092 8.47131C16.9747 8.49123 16.9406 8.51082 16.907 8.53016C16.6524 8.67659 16.4233 8.8083 16.2029 8.95393C15.7209 9.27242 15.3479 9.61521 15.0969 10.1328C15.009 10.314 15.0063 10.4909 15.0583 10.6802C15.1415 10.9833 15.1982 11.3243 15.1991 11.6719C15.201 12.3963 14.832 12.9843 14.3577 13.3665C13.8891 13.7442 13.2766 13.9602 12.6601 13.9534C9.91927 13.9235 8.23413 11.6992 8.01187 9.22547C7.92345 8.24141 7.49202 7.246 6.94726 6.37602C6.44697 5.57704 5.88326 4.93502 5.50046 4.56851ZM6.8032 3.50134C7.26651 3.96795 7.8478 4.65914 8.36642 5.48739C8.98877 6.48129 9.55895 7.73313 9.67957 9.07563C9.84809 10.9513 11.0337 12.2612 12.6783 12.2791C12.9044 12.2816 13.1394 12.1978 13.307 12.0627C13.469 11.9322 13.525 11.7944 13.5247 11.6762C13.5243 11.5026 13.495 11.3107 13.4436 11.1235C13.3084 10.631 13.289 10.0233 13.5903 9.40209C14.0201 8.516 14.657 7.96842 15.2799 7.55689C15.5469 7.38051 15.8237 7.22141 16.0736 7.07783C16.1073 7.05847 16.1405 7.0394 16.1731 7.02061C16.458 6.85639 16.7081 6.70816 16.9359 6.54449C17.4171 6.19875 17.7215 5.92276 17.8144 5.78173C18.0181 5.47261 18.2471 4.96223 18.392 4.43442C18.5069 4.01622 18.5387 3.69529 18.528 3.49636C16.8634 2.34732 14.8449 1.67442 12.6692 1.67442C10.4904 1.67442 8.46917 2.34926 6.8032 3.50134ZM24.5902 13.3845C24.6424 12.9302 24.6692 12.4683 24.6692 12C24.6692 5.37258 19.2966 0 12.6692 0C6.04177 0 0.669189 5.37258 0.669189 12C0.669189 18.6274 6.04177 24 12.6692 24C18.7645 24 23.7984 19.4555 24.5674 13.57C24.5878 13.499 24.6055 13.4401 24.6213 13.3955L24.5902 13.3845ZM21.493 17.3655C20.8281 17.6092 20.0268 17.7541 19.0611 17.7642L19.0523 17.7643V17.7642L19.0493 17.7643L19.0264 17.7646C19.0047 17.765 18.9705 17.7659 18.9253 17.7676C18.8347 17.7712 18.7009 17.7785 18.5355 17.7934C18.2026 17.8232 17.7524 17.8827 17.276 17.9999C16.2699 18.2471 15.3873 18.6912 15.0122 19.398C14.5038 20.3561 14.5763 21.3986 14.766 22.1126C17.6114 21.5256 20.029 19.768 21.493 17.3655Z" fill="#9E9E9E"/>
</svg>
