<svg width="138" height="138" viewBox="0 0 138 138" fill="none" xmlns="http://www.w3.org/2000/svg">
<g filter="url(#filter0_ii_0_1)">
<rect x="0.496948" y="0.571777" width="137.006" height="137.006" rx="34" fill="#C4A42E"/>
</g>
<path fill-rule="evenodd" clip-rule="evenodd" d="M82.6036 35.1024C81.1612 35.3864 80.4205 35.5713 79.5685 35.8597C78.5066 36.2193 76.7752 37.0239 76.7061 37.19C76.6788 37.2551 76.5909 37.3084 76.5107 37.3084C76.3768 37.3084 75.4139 37.93 74.686 38.4862C74.2877 38.7905 72.0999 40.9793 71.6953 41.4784C71.5193 41.6953 71.2933 42.0285 71.1931 42.2187C71.0928 42.4088 70.9633 42.5977 70.9053 42.6384C70.6466 42.8195 69.5492 45.1249 69.1609 46.3028C68.5839 48.0525 68.3902 48.8904 68.3902 49.6363C68.3902 50.351 68.0934 51.8388 67.7333 52.9283C67.4727 53.7166 66.6232 55.5437 66.4597 55.6674C66.4059 55.7081 66.2799 55.897 66.1796 56.0871C65.8409 56.7298 64.3531 58.3362 63.2823 59.2152C62.2316 60.0776 59.8495 61.3154 58.4705 61.7153C55.7503 62.5043 53.6663 62.6591 51.1771 62.2569C49.0863 61.9192 47.9703 61.5703 46.0338 60.6499C45.3574 60.3283 43.9482 59.511 43.813 59.3621C43.7723 59.3172 43.5058 59.1202 43.2208 58.9241C42.4171 58.3714 40.6686 56.584 39.8903 55.5193C39.1204 54.4662 38.0692 52.4224 37.7578 51.3737C37.6491 51.0073 37.5012 50.5143 37.4293 50.2783C37.3575 50.0421 37.2985 49.6646 37.2985 49.4391C37.2985 48.9388 37.1643 48.5607 36.9866 48.5607C36.8045 48.5607 36.8194 53.3829 37.0064 54.9271C37.2756 57.1507 37.4291 58.021 37.9201 60.109C38.1354 61.024 39.2339 64.4426 39.3715 64.6247C39.4329 64.7062 39.5333 64.9393 39.5946 65.1429C39.7335 65.6046 40.974 68.1615 41.6632 69.4068C42.2159 70.4056 44.0625 73.1661 44.5065 73.6576C44.6544 73.8214 45.0404 74.2877 45.3643 74.694C46.1274 75.6512 49.005 78.5279 49.9573 79.2855C50.3645 79.6094 50.7309 79.9122 50.7716 79.9583C50.8123 80.0043 51.1788 80.2677 51.5859 80.5434C51.9931 80.8192 52.4143 81.1313 52.5218 81.2369C52.6294 81.3426 52.7747 81.4291 52.8444 81.4291C52.9141 81.4291 53.0594 81.514 53.167 81.6178C53.424 81.8661 55.7454 83.2426 56.3607 83.5117C56.6254 83.6274 56.8419 83.7725 56.8419 83.8341C56.8419 83.8957 56.91 83.946 56.9932 83.946C57.0764 83.946 57.7159 84.2125 58.4144 84.5382C59.1129 84.8639 59.7453 85.1304 59.8197 85.1304C59.8942 85.1304 60.0708 85.1892 60.2122 85.2612C62.1245 86.2341 66.5012 87.2547 70.4313 87.6444C73.5663 87.9553 78.6292 87.6341 81.123 86.966C81.3672 86.9006 81.4427 86.9166 81.3451 87.013C81.0018 87.3519 77.2542 88.6551 75.3118 89.1109C70.2931 90.2889 66.239 90.4597 61.2095 89.7049C58.7804 89.3404 55.0293 88.3224 53.3256 87.5651C53.061 87.4475 52.5946 87.2441 52.2892 87.1132C51.4725 86.7629 49.2289 85.6682 49.143 85.5782C49.1023 85.5355 48.7692 85.3398 48.4027 85.1433C47.7228 84.7788 45.3115 83.1807 44.7757 82.7396C41.9226 80.3909 41.0319 79.5505 39.463 77.7277C35.5262 73.1533 33.3874 69.1822 31.5885 63.1072C31.2633 62.0093 31.0648 65.385 31.2465 68.9183C31.3716 71.3491 31.6415 73.3107 32.1073 75.1737C32.1939 75.5197 32.3234 76.0528 32.3952 76.3581C32.6184 77.3072 33.4387 79.6682 34.003 80.9849C34.6133 82.4093 36.0401 85.2148 36.4462 85.7891C36.5067 85.8747 36.9031 86.4777 37.327 87.1292C37.7507 87.7806 38.1348 88.347 38.1801 88.3877C38.2255 88.4284 38.4445 88.7058 38.6667 89.004C38.889 89.3024 39.155 89.6371 39.2581 89.748C39.3611 89.8587 39.8118 90.3803 40.2597 90.9071C41.2925 92.1218 42.2997 93.129 43.5144 94.1618C44.0411 94.6097 44.5627 95.0604 44.6735 95.1634C44.7844 95.2665 45.1191 95.5325 45.4175 95.7548C45.7157 95.977 45.9931 96.196 46.0338 96.2414C46.0745 96.2867 46.6409 96.6708 47.2923 97.0945C47.9437 97.5184 48.5468 97.9148 48.6324 97.9753C49.8671 98.8485 54.1788 100.809 56.3977 101.506C57.6031 101.884 57.9387 101.976 59.2108 102.277C62.4603 103.044 63.9024 103.196 67.8721 103.19C71.0862 103.184 72.488 103.068 74.9047 102.609C75.6497 102.467 76.0588 102.377 77.5697 102.021C78.4148 101.823 81.3334 100.811 81.4858 100.664C81.5631 100.589 81.7138 100.528 81.8204 100.528C82.2605 100.528 87.4803 97.7996 87.7855 97.4099C87.8263 97.3579 88.022 97.2297 88.2204 97.125C88.4188 97.0205 88.652 96.8762 88.7386 96.8043C88.8252 96.7325 89.3623 96.3271 89.9324 95.9036C91.0331 95.0856 91.4052 94.7788 92.584 93.7177C93.5174 92.8776 94.0522 92.3428 94.8922 91.4095C95.9533 90.2307 96.2601 89.8586 97.0781 88.7578C97.5017 88.1878 97.9071 87.6506 97.9789 87.564C98.0507 87.4774 98.195 87.2442 98.2996 87.0458C98.4042 86.8474 98.5305 86.6517 98.5801 86.611C98.9969 86.269 101.07 82.2752 101.866 80.2816C101.939 80.0983 102.061 79.7987 102.137 79.6154C102.312 79.1944 102.791 77.7109 103.033 76.8393C103.134 76.4729 103.271 76.0065 103.336 75.8029C103.496 75.304 104.013 72.4547 104.21 70.9911C104.411 69.4986 104.417 63.6376 104.219 62.342C103.813 59.6931 103.701 59.0911 103.334 57.5921C103.264 57.3071 102.96 56.2927 102.659 55.3379C102.177 53.8135 102.11 53.4131 102.102 52.0523L102.092 50.5026L104.302 48.0881C105.518 46.7602 106.596 45.5849 106.7 45.4765C106.96 45.2035 106.796 45.0073 106.308 45.0073C106.083 45.0073 105.537 44.9456 105.096 44.8701C103.625 44.6182 102.376 44.4265 101.622 44.3366C100.48 44.2006 100.403 44.1115 100.771 43.3522C100.942 43.0004 101.688 41.4692 102.429 39.9498C103.169 38.4303 103.776 37.1391 103.776 37.0803C103.776 36.9288 102.396 37.052 97.9274 37.6025C95.4582 37.9066 94.7171 37.9483 94.6183 37.7886C94.5649 37.702 93.8012 37.2637 92.9213 36.8147C91.0952 35.8825 89.9482 35.506 87.7026 35.1012C86.6539 34.9123 83.5658 34.913 82.6036 35.1024ZM87.1032 40.938C88.3116 41.5114 89.118 42.7356 89.118 43.9964C89.118 45.6856 87.4696 47.3762 85.8225 47.3762C85.1198 47.3762 83.7159 46.7121 83.3322 46.1983C83.1776 45.9912 83.0002 45.755 82.9383 45.6736C82.4635 45.0497 82.3328 43.699 82.6713 42.9156C83.5226 40.9457 85.3762 40.1185 87.1032 40.938Z" fill="#EAE8FF"/>
<defs>
<filter id="filter0_ii_0_1" x="-2.50305" y="-2.42822" width="144.006" height="144.006" filterUnits="userSpaceOnUse" color-interpolation-filters="sRGB">
<feFlood flood-opacity="0" result="BackgroundImageFix"/>
<feBlend mode="normal" in="SourceGraphic" in2="BackgroundImageFix" result="shape"/>
<feColorMatrix in="SourceAlpha" type="matrix" values="0 0 0 0 0 0 0 0 0 0 0 0 0 0 0 0 0 0 127 0" result="hardAlpha"/>
<feOffset dx="4" dy="4"/>
<feGaussianBlur stdDeviation="2.5"/>
<feComposite in2="hardAlpha" operator="arithmetic" k2="-1" k3="1"/>
<feColorMatrix type="matrix" values="0 0 0 0 1 0 0 0 0 0.910801 0 0 0 0 0.570833 0 0 0 1 0"/>
<feBlend mode="normal" in2="shape" result="effect1_innerShadow_0_1"/>
<feColorMatrix in="SourceAlpha" type="matrix" values="0 0 0 0 0 0 0 0 0 0 0 0 0 0 0 0 0 0 127 0" result="hardAlpha"/>
<feOffset dx="-3" dy="-3"/>
<feGaussianBlur stdDeviation="2"/>
<feComposite in2="hardAlpha" operator="arithmetic" k2="-1" k3="1"/>
<feColorMatrix type="matrix" values="0 0 0 0 0.625 0 0 0 0 0.507428 0 0 0 0 0.0598959 0 0 0 1 0"/>
<feBlend mode="normal" in2="effect1_innerShadow_0_1" result="effect2_innerShadow_0_1"/>
</filter>
</defs>
</svg>
