<svg width="76" height="70" viewBox="0 0 76 70" fill="none" xmlns="http://www.w3.org/2000/svg">
<path fill-rule="evenodd" clip-rule="evenodd" d="M51.6036 1.10241C50.1612 1.38638 49.4205 1.5713 48.5684 1.85971C47.5066 2.21934 45.7752 3.02388 45.7061 3.19C45.6788 3.25514 45.5909 3.30844 45.5107 3.30844C45.3768 3.30844 44.4139 3.92998 43.686 4.48622C43.2877 4.79048 41.0999 6.97933 40.6953 7.47843C40.5193 7.69533 40.2933 8.02846 40.1931 8.21871C40.0929 8.40881 39.9633 8.59773 39.9053 8.63845C39.6466 8.81952 38.5492 11.1249 38.1609 12.3028C37.5839 14.0525 37.3902 14.8904 37.3902 15.6363C37.3902 16.351 37.0934 17.8388 36.7333 18.9283C36.4727 19.7166 35.6232 21.5437 35.4597 21.6674C35.4059 21.7081 35.2799 21.897 35.1796 22.0871C34.8409 22.7298 33.3531 24.3362 32.2823 25.2152C31.2316 26.0776 28.8495 27.3154 27.4705 27.7153C24.7503 28.5043 22.6663 28.6591 20.1771 28.2569C18.0863 27.9192 16.9703 27.5703 15.0338 26.6499C14.3574 26.3283 12.9482 25.511 12.813 25.3621C12.7723 25.3172 12.5058 25.1202 12.2208 24.9241C11.4171 24.3714 9.66859 22.584 8.89026 21.5193C8.12037 20.4662 7.06917 18.4224 6.75781 17.3737C6.64914 17.0073 6.50123 16.5143 6.42927 16.2783C6.35747 16.0421 6.29854 15.6646 6.29854 15.4391C6.29854 14.9388 6.16425 14.5607 5.98659 14.5607C5.80448 14.5607 5.81943 19.3829 6.00643 20.9271C6.27559 23.1507 6.42913 24.021 6.92008 26.109C7.13535 27.024 8.23393 30.4426 8.37147 30.6247C8.43291 30.7062 8.53329 30.9393 8.59459 31.1429C8.73346 31.6046 9.97402 34.1615 10.6632 35.4068C11.2159 36.4056 13.0625 39.1661 13.5065 39.6576C13.6544 39.8214 14.0404 40.2877 14.3643 40.694C15.1274 41.6512 18.005 44.5279 18.9573 45.2855C19.3645 45.6094 19.7309 45.9122 19.7716 45.9583C19.8123 46.0043 20.1788 46.2677 20.5859 46.5434C20.9931 46.8192 21.4143 47.1313 21.5218 47.2369C21.6294 47.3426 21.7747 47.429 21.8444 47.429C21.9141 47.429 22.0594 47.514 22.167 47.6178C22.424 47.8661 24.7454 49.2426 25.3607 49.5117C25.6254 49.6274 25.8419 49.7725 25.8419 49.8341C25.8419 49.8957 25.91 49.946 25.9932 49.946C26.0764 49.946 26.7159 50.2125 27.4144 50.5382C28.1129 50.8639 28.7453 51.1304 28.8197 51.1304C28.8942 51.1304 29.0708 51.1892 29.2122 51.2612C31.1245 52.234 35.5012 53.2547 39.4313 53.6444C42.5663 53.9553 47.6292 53.6341 50.123 52.966C50.3672 52.9006 50.4427 52.9166 50.3451 53.013C50.0018 53.3519 46.2542 54.6551 44.3118 55.1109C39.2931 56.2889 35.239 56.4597 30.2095 55.7049C27.7804 55.3404 24.0293 54.3224 22.3256 53.5651C22.061 53.4475 21.5946 53.2441 21.2892 53.1132C20.4725 52.7629 18.2289 51.6682 18.143 51.5782C18.1023 51.5355 17.7692 51.3398 17.4027 51.1433C16.7228 50.7788 14.3115 49.1807 13.7757 48.7396C10.9226 46.3909 10.0319 45.5505 8.46297 43.7277C4.52617 39.1533 2.38735 35.1822 0.588475 29.1072C0.263345 28.0093 0.0648023 31.385 0.246467 34.9183C0.371574 37.3491 0.641479 39.3107 1.10726 41.1737C1.19387 41.5197 1.32342 42.0528 1.39523 42.3581C1.61835 43.3072 2.43873 45.6682 3.00297 46.9849C3.61325 48.4093 5.04007 51.2148 5.44618 51.7891C5.50674 51.8747 5.90308 52.4777 6.32697 53.1292C6.7507 53.7806 7.13476 54.347 7.18006 54.3877C7.22552 54.4284 7.44449 54.7058 7.66672 55.004C7.88895 55.3024 8.15501 55.6371 8.25806 55.748C8.3611 55.8587 8.81179 56.3803 9.25966 56.9071C10.2925 58.1218 11.2997 59.129 12.5144 60.1618C13.0411 60.6097 13.5627 61.0604 13.6735 61.1634C13.7844 61.2665 14.1191 61.5325 14.4175 61.7548C14.7157 61.977 14.9931 62.196 15.0338 62.2414C15.0745 62.2867 15.6409 62.6708 16.2923 63.0945C16.9437 63.5184 17.5468 63.9148 17.6324 63.9753C18.8671 64.8485 23.1788 66.8088 25.3977 67.5057C26.6031 67.8843 26.9387 67.9764 28.2108 68.2768C31.4603 69.0441 32.9024 69.1962 36.872 69.1895C40.0862 69.1842 41.488 69.0684 43.9047 68.6086C44.6497 68.4669 45.0588 68.3767 46.5697 68.0214C47.4148 67.8227 50.3334 66.811 50.4858 66.664C50.5631 66.5894 50.7138 66.5282 50.8204 66.5282C51.2605 66.5282 56.4803 63.7996 56.7855 63.4099C56.8263 63.3579 57.022 63.2297 57.2204 63.125C57.4188 63.0205 57.652 62.8762 57.7386 62.8043C57.8252 62.7325 58.3623 62.3271 58.9324 61.9036C60.0331 61.0856 60.4052 60.7788 61.584 59.7177C62.5174 58.8776 63.0521 58.3428 63.8922 57.4095C64.9533 56.2307 65.2601 55.8586 66.0781 54.7578C66.5017 54.1878 66.9071 53.6506 66.9789 53.564C67.0507 53.4774 67.195 53.2442 67.2996 53.0458C67.4042 52.8474 67.5305 52.6517 67.5801 52.611C67.9969 52.269 70.0703 48.2752 70.8659 46.2816C70.9391 46.0983 71.0611 45.7987 71.1372 45.6154C71.312 45.1944 71.7905 43.7109 72.0326 42.8393C72.1343 42.4729 72.271 42.0065 72.336 41.8029C72.4956 41.304 73.0133 38.4547 73.2102 36.9911C73.4112 35.4986 73.4169 29.6376 73.2187 28.342C72.8135 25.6931 72.7014 25.0911 72.3336 23.5921C72.2637 23.3071 71.9599 22.2927 71.6586 21.3379C71.1774 19.8135 71.1096 19.4131 71.1016 18.0523L71.0925 16.5026L73.3022 14.0881C74.5176 12.7602 75.5963 11.5849 75.6997 11.4765C75.9599 11.2035 75.7963 11.0073 75.3085 11.0073C75.0826 11.0073 74.5368 10.9456 74.0958 10.8701C72.6247 10.6182 71.3764 10.4265 70.6216 10.3366C69.48 10.2006 69.403 10.1115 69.7714 9.35222C69.9421 9.00044 70.6878 7.46925 71.4287 5.94975C72.1694 4.43026 72.7756 3.13906 72.7756 3.08029C72.7756 2.92883 71.396 3.05201 66.9274 3.60248C64.4582 3.90658 63.7171 3.94834 63.6183 3.78858C63.5649 3.70197 62.8012 3.26373 61.9213 2.81467C60.0952 1.88251 58.9482 1.50601 56.7026 1.10122C55.654 0.912306 52.5658 0.913047 51.6036 1.10241ZM56.1032 6.93803C57.3116 7.51145 58.118 8.73557 58.118 9.99641C58.118 11.6856 56.4696 13.3762 54.8225 13.3762C54.1198 13.3762 52.7159 12.7121 52.3322 12.1983C52.1776 11.9912 52.0002 11.755 51.9383 11.6736C51.4635 11.0497 51.3328 9.69897 51.6713 8.91561C52.5226 6.94572 54.3762 6.11854 56.1032 6.93803Z" fill="#EAE8FF"/>
</svg>
