<svg width="24" height="24" viewBox="0 0 24 24" fill="none" xmlns="http://www.w3.org/2000/svg">
<path fill-rule="evenodd" clip-rule="evenodd" d="M3.2757 8.65116C3.2757 3.87326 7.14896 0 11.9269 0C16.7048 0 20.578 3.87326 20.578 8.65116V9.43714C20.578 10.2151 20.8083 10.9756 21.2398 11.6229L22.522 13.5462C24.0101 15.7784 22.8741 18.8124 20.2859 19.5183C14.8131 21.0109 9.04059 21.0109 3.56786 19.5183C0.979667 18.8124 -0.156378 15.7784 1.33173 13.5462L2.61389 11.6229C3.04543 10.9756 3.2757 10.2151 3.2757 9.43714V8.65116ZM11.9269 1.67442C8.07372 1.67442 4.95012 4.79801 4.95012 8.65116V9.43714C4.95012 10.5457 4.62199 11.6294 4.00709 12.5517L2.72493 14.475C1.87078 15.7562 2.52285 17.4977 4.00843 17.9029C9.19271 19.3168 14.661 19.3168 19.8453 17.9029C21.3309 17.4977 21.9829 15.7562 21.1288 14.475L19.8466 12.5518C19.2317 11.6294 18.9036 10.5457 18.9036 9.43714V8.65116C18.9036 4.79801 15.78 1.67442 11.9269 1.67442Z" fill="#9E9E9E"/>
<path fill-rule="evenodd" clip-rule="evenodd" d="M11.9267 22.3256C9.943 22.3256 8.29141 21.1317 7.68744 19.5201C7.52517 19.0872 7.04264 18.8677 6.60967 19.03C6.1767 19.1923 5.95725 19.6748 6.11951 20.1078C6.97793 22.3982 9.27223 24 11.9267 24C14.5812 24 16.8755 22.3982 17.7339 20.1078C17.8962 19.6748 17.6768 19.1923 17.2438 19.03C16.8108 18.8677 16.3283 19.0872 16.166 19.5201C15.5621 21.1317 13.9105 22.3256 11.9267 22.3256Z" fill="#9E9E9E"/>
</svg>
