<svg width="25" height="24" viewBox="0 0 25 24" fill="none" xmlns="http://www.w3.org/2000/svg">
<path fill-rule="evenodd" clip-rule="evenodd" d="M12.1111 1.67442C6.71664 1.67442 2.34361 6.04745 2.34361 11.4419C2.34361 16.8363 6.71664 21.2093 12.1111 21.2093C17.5055 21.2093 21.8785 16.8363 21.8785 11.4419C21.8785 6.04745 17.5055 1.67442 12.1111 1.67442ZM0.669189 11.4419C0.669189 5.1227 5.79188 0 12.1111 0C18.4302 0 23.5529 5.1227 23.5529 11.4419C23.5529 14.3001 22.5049 16.9136 20.7721 18.9189L24.424 22.5708C24.7509 22.8977 24.7509 23.4278 24.424 23.7548C24.097 24.0817 23.5669 24.0817 23.24 23.7548L19.5881 20.1029C17.5828 21.8357 14.9693 22.8837 12.1111 22.8837C5.79188 22.8837 0.669189 17.761 0.669189 11.4419Z" fill="#9E9E9E"/>
</svg>
