<svg width="41" height="40" viewBox="0 0 41 40" fill="none" xmlns="http://www.w3.org/2000/svg">
<rect x="0.669128" width="40" height="40" rx="7" fill="#E2D213"/>
<path fill-rule="evenodd" clip-rule="evenodd" d="M24.6109 10.1561C24.193 10.2384 23.9784 10.292 23.7315 10.3756C23.4238 10.4798 22.9221 10.7129 22.9021 10.761C22.8942 10.7799 22.8687 10.7954 22.8454 10.7954C22.8067 10.7954 22.5276 10.9755 22.3167 11.1366C22.2013 11.2248 21.5674 11.859 21.4501 12.0037C21.3991 12.0665 21.3337 12.163 21.3046 12.2182C21.2756 12.2733 21.238 12.328 21.2212 12.3398C21.1463 12.3923 20.8283 13.0603 20.7158 13.4016C20.5486 13.9086 20.4925 14.1514 20.4925 14.3675C20.4925 14.5746 20.4065 15.0057 20.3021 15.3214C20.2266 15.5498 19.9805 16.0792 19.9331 16.1151C19.9175 16.1269 19.881 16.1816 19.8519 16.2367C19.7538 16.4229 19.3227 16.8884 19.0124 17.1431C18.7079 17.393 18.0177 17.7516 17.6181 17.8675C16.8299 18.0961 16.226 18.141 15.5048 18.0244C14.8989 17.9266 14.5756 17.8255 14.0145 17.5588C13.8184 17.4656 13.4101 17.2288 13.3709 17.1856C13.3592 17.1726 13.2819 17.1155 13.1993 17.0587C12.9665 16.8986 12.4598 16.3807 12.2343 16.0722C12.0112 15.767 11.7066 15.1748 11.6164 14.8709C11.5849 14.7648 11.542 14.6219 11.5212 14.5535C11.5004 14.4851 11.4833 14.3757 11.4833 14.3103C11.4833 14.1654 11.4444 14.0558 11.3929 14.0558C11.3402 14.0558 11.3445 15.4531 11.3987 15.9006C11.4767 16.5449 11.5212 16.797 11.6634 17.4021C11.7258 17.6672 12.0441 18.6578 12.084 18.7105C12.1018 18.7341 12.1309 18.8017 12.1486 18.8607C12.1889 18.9945 12.5483 19.7354 12.748 20.0962C12.9082 20.3856 13.4432 21.1855 13.5719 21.3279C13.6148 21.3754 13.7266 21.5105 13.8205 21.6282C14.0416 21.9056 14.8754 22.7391 15.1513 22.9587C15.2693 23.0525 15.3755 23.1403 15.3873 23.1536C15.3991 23.1669 15.5053 23.2433 15.6232 23.3231C15.7412 23.4031 15.8633 23.4935 15.8944 23.5241C15.9256 23.5547 15.9677 23.5798 15.9879 23.5798C16.0081 23.5798 16.0502 23.6044 16.0814 23.6345C16.1559 23.7064 16.8285 24.1053 17.0068 24.1833C17.0835 24.2168 17.1462 24.2588 17.1462 24.2767C17.1462 24.2945 17.1659 24.3091 17.1901 24.3091C17.2142 24.3091 17.3995 24.3863 17.6019 24.4807C17.8043 24.5751 17.9875 24.6523 18.0091 24.6523C18.0307 24.6523 18.0818 24.6693 18.1228 24.6902C18.6769 24.9721 19.9451 25.2678 21.0839 25.3808C21.9923 25.4708 23.4593 25.3778 24.1819 25.1842C24.2527 25.1652 24.2746 25.1699 24.2463 25.1978C24.1468 25.296 23.0609 25.6736 22.4981 25.8057C21.0438 26.147 19.8691 26.1965 18.4118 25.9778C17.7079 25.8722 16.621 25.5772 16.1273 25.3578C16.0507 25.3237 15.9155 25.2647 15.827 25.2268C15.5904 25.1253 14.9403 24.8081 14.9154 24.782C14.9036 24.7697 14.8071 24.713 14.7009 24.656C14.5039 24.5504 13.8051 24.0873 13.6499 23.9595C12.8232 23.279 12.5651 23.0355 12.1105 22.5073C10.9698 21.1818 10.35 20.0311 9.82877 18.2708C9.73456 17.9527 9.67703 18.9308 9.72966 19.9547C9.76592 20.659 9.84412 21.2274 9.97909 21.7672C10.0042 21.8675 10.0417 22.022 10.0625 22.1104C10.1272 22.3854 10.3649 23.0696 10.5284 23.4511C10.7052 23.8638 11.1187 24.6768 11.2363 24.8432C11.2539 24.868 11.3687 25.0427 11.4916 25.2315C11.6143 25.4202 11.7256 25.5843 11.7387 25.5961C11.7519 25.6079 11.8154 25.6883 11.8798 25.7747C11.9442 25.8612 12.0212 25.9582 12.0511 25.9903C12.081 26.0224 12.2116 26.1735 12.3413 26.3262C12.6406 26.6781 12.9325 26.97 13.2844 27.2692C13.4371 27.399 13.5882 27.5296 13.6203 27.5595C13.6524 27.5893 13.7494 27.6664 13.8359 27.7308C13.9223 27.7952 14.0027 27.8587 14.0145 27.8718C14.0263 27.885 14.1904 27.9962 14.3791 28.119C14.5679 28.2418 14.7426 28.3567 14.7674 28.3742C15.1252 28.6273 16.3746 29.1953 17.0175 29.3972C17.3668 29.5069 17.464 29.5336 17.8326 29.6206C18.7742 29.843 19.1921 29.887 20.3423 29.8851C21.2736 29.8836 21.6798 29.85 22.3801 29.7168C22.596 29.6757 22.7145 29.6496 23.1523 29.5466C23.3972 29.4891 24.2429 29.1959 24.287 29.1533C24.3094 29.1317 24.3531 29.114 24.384 29.114C24.5115 29.114 26.024 28.3233 26.1125 28.2104C26.1243 28.1953 26.181 28.1582 26.2385 28.1279C26.296 28.0976 26.3635 28.0557 26.3886 28.0349C26.4137 28.0141 26.5694 27.8967 26.7345 27.7739C27.0535 27.5369 27.1613 27.448 27.5029 27.1405C27.7733 26.8971 27.9283 26.7422 28.1717 26.4717C28.4792 26.1301 28.5681 26.0223 28.8051 25.7034C28.9278 25.5382 29.0453 25.3826 29.0661 25.3575C29.0869 25.3324 29.1287 25.2648 29.159 25.2073C29.1893 25.1498 29.2259 25.0931 29.2403 25.0813C29.3611 24.9822 29.9619 23.825 30.1924 23.2473C30.2136 23.1942 30.249 23.1074 30.271 23.0542C30.3217 22.9323 30.4603 22.5024 30.5305 22.2499C30.5599 22.1437 30.5995 22.0085 30.6184 21.9496C30.6646 21.805 30.8146 20.9794 30.8717 20.5553C30.9299 20.1228 30.9316 18.4245 30.8741 18.0491C30.7567 17.2816 30.7243 17.1071 30.6177 16.6728C30.5974 16.5902 30.5094 16.2963 30.4221 16.0196C30.2827 15.5779 30.263 15.4618 30.2607 15.0675L30.258 14.6185L30.8983 13.9189C31.2505 13.5341 31.5631 13.1936 31.593 13.1622C31.6685 13.083 31.621 13.0262 31.4797 13.0262C31.4142 13.0262 31.2561 13.0083 31.1283 12.9864C30.702 12.9135 30.3403 12.8579 30.1216 12.8319C29.7908 12.7924 29.7685 12.7666 29.8752 12.5466C29.9247 12.4447 30.1408 12.001 30.3555 11.5607C30.5701 11.1204 30.7457 10.7463 30.7457 10.7293C30.7457 10.6854 30.346 10.7211 29.0512 10.8806C28.3357 10.9687 28.1209 10.9808 28.0923 10.9345C28.0768 10.9094 27.8556 10.7824 27.6006 10.6523C27.0715 10.3822 26.7391 10.2731 26.0884 10.1558C25.7846 10.1011 24.8898 10.1013 24.6109 10.1561ZM25.9147 11.8471C26.2649 12.0132 26.4986 12.3679 26.4986 12.7333C26.4986 13.2227 26.0209 13.7126 25.5436 13.7126C25.34 13.7126 24.9333 13.5202 24.8221 13.3713C24.7773 13.3113 24.7259 13.2429 24.7079 13.2193C24.5704 13.0385 24.5325 12.6471 24.6305 12.4201C24.8772 11.8493 25.4143 11.6096 25.9147 11.8471Z" fill="#424300"/>
</svg>
